# xmcd
#
# Track frame offsets:
#	150
#	16290
#	33702
#	51462
#	65852
#	81845
#	94640
#	114622
#	134895
#	151007
#	168420
#	186160
#	200535
#	216525
#	229300
#	249292
#
# Disc length: 3594
#
# Revision: 2
# Processed by: cddbd v1.5.2PL0 Copyright (c) Steve Scherf et al.
# Submitted via: kJams Pro 1.0b17
#
DISCID=ee0e0810
DTITLE=hits of the beastie boys - sc2312
DYEAR=2001
DGENRE=Rap
TTITLE0=Beastie Boys - Fight For Your Right
TTITLE1=Beastie Boys - So What'cha Want
TTITLE2=Beastie Boys - Paul Revere
TTITLE3=Beastie Boys - Sabotage
TTITLE4=Beastie Boys - Sure Shot
TTITLE5=Beastie Boys - Brass Monkey
TTITLE6=Beastie Boys - Get It Together
TTITLE7=Beastie Boys - No Sleep Till Brooklyn
TTITLE8=Beastie Boys - Fight For Your Right (Vocals)
TTITLE9=Beastie Boys - So What'Cha Want (Vocals)
TTITLE10=Beastie Boys - Paul Revere (Vocals)
TTITLE11=Beastie Boys - Sabotage (Vocals)
TTITLE12=Beastie Boys - Sure Shot (Vocals)
TTITLE13=Beastie Boys - Brass Monkey (Vocals)
TTITLE14=Beastie Boys - Get It Together (Vocals)
TTITLE15=Beastie Boys - No Sleep Till Brooklyn (Vocals)
EXTD=
EXTT0=
EXTT1=
EXTT2=
EXTT3=
EXTT4=
EXTT5=
EXTT6=
EXTT7=
EXTT8=
EXTT9=
EXTT10=
EXTT11=
EXTT12=
EXTT13=
EXTT14=
EXTT15=
PLAYORDER=
